<?xml version="1.0" standalone="no"?>
<!DOCTYPE svg PUBLIC "-//W3C//DTD SVG 20010904//EN"
 "http://www.w3.org/TR/2001/REC-SVG-20010904/DTD/svg10.dtd">
<svg version="1.0" xmlns="http://www.w3.org/2000/svg"
 width="512.000000pt" height="512.000000pt" viewBox="0 0 512.000000 512.000000"
 preserveAspectRatio="xMidYMid meet">
<metadata>
Created by potrace 1.11, written by Peter Selinger 2001-2013
</metadata>
<g transform="translate(0.000000,512.000000) scale(0.100000,-0.100000)"
fill="#000000" stroke="none">
<path d="M3553 4499 c-13 -4 -23 -16 -23 -26 0 -37 -25 -66 -65 -77 -37 -11
-40 -14 -40 -46 0 -32 3 -36 41 -48 40 -13 64 -42 64 -77 0 -19 36 -38 60 -30
10 3 24 23 32 47 14 43 25 53 70 63 39 8 49 52 18 77 -12 10 -30 18 -40 18
-22 0 -47 29 -52 59 -4 32 -36 52 -65 40z"/>
<path d="M2309 4451 c-74 -23 -79 -31 -126 -195 -79 -280 -67 -252 -121 -266
-37 -11 -187 -68 -249 -96 -9 -4 -13 50 -15 224 -3 253 -4 256 -72 306 -27 21
-39 21 -679 24 -728 3 -696 5 -744 -67 -21 -32 -23 -45 -23 -187 0 -141 2
-154 19 -164 13 -6 253 -10 710 -10 l691 0 0 -351 c0 -222 -4 -357 -10 -370
-10 -18 -28 -19 -648 -19 -483 0 -641 3 -650 12 -9 9 -12 79 -12 254 0 134 -4
254 -9 267 -12 30 -43 39 -70 20 -20 -14 -21 -23 -21 -286 0 -300 1 -305 66
-348 27 -18 52 -19 355 -19 180 0 340 -3 357 -6 l30 -6 -31 -67 c-16 -36 -42
-104 -58 -150 l-27 -85 -192 -55 c-208 -59 -241 -77 -254 -142 -8 -41 -8 -387
0 -429 13 -63 45 -80 253 -140 l192 -55 34 -102 c19 -56 54 -142 79 -192 26
-50 46 -95 46 -100 0 -5 -43 -87 -95 -183 -99 -181 -107 -205 -79 -263 25 -52
304 -321 342 -330 49 -10 75 0 252 99 l165 92 107 -51 c59 -28 148 -65 198
-81 l91 -29 19 -65 c10 -36 33 -117 51 -180 41 -150 51 -168 105 -192 41 -18
63 -19 253 -16 282 4 267 -7 346 273 51 185 48 179 113 199 21 7 22 5 22 -56
0 -76 21 -123 69 -155 l34 -23 804 0 c872 0 829 -3 883 55 l25 27 3 541 c2
527 2 543 -18 575 -11 18 -34 41 -52 52 -31 19 -51 20 -376 20 l-342 0 6 28
c4 15 10 33 14 41 5 8 86 37 186 66 198 57 213 63 243 101 20 25 21 39 21 260
l0 234 -32 35 c-30 31 -52 40 -223 88 l-189 54 -36 104 c-20 57 -57 146 -82
197 l-47 93 81 147 c45 81 90 166 100 189 33 74 20 97 -154 269 -84 84 -163
157 -175 163 -44 22 -78 11 -256 -88 l-178 -98 -87 44 c-48 24 -136 61 -197
82 l-110 39 -56 191 c-60 206 -75 233 -138 251 -42 12 -394 12 -432 1z m482
-308 c31 -111 60 -206 63 -212 3 -5 58 -26 122 -46 63 -20 169 -63 235 -96
l119 -61 190 106 c105 58 194 106 198 106 4 0 72 -65 151 -144 135 -136 142
-145 130 -168 -7 -12 -54 -98 -106 -191 -51 -92 -93 -171 -93 -175 0 -4 25
-56 56 -117 30 -60 74 -166 97 -235 l42 -125 210 -60 210 -61 0 -209 0 -209
-210 -61 -210 -60 -26 -80 -25 -80 -120 -5 c-111 -5 -120 -6 -129 -27 -9 -21
-16 -23 -97 -23 -71 0 -88 3 -88 15 0 24 -35 35 -114 35 l-75 0 44 93 c66 139
89 243 88 407 0 112 -4 151 -25 231 -87 324 -324 566 -653 665 -82 25 -105 27
-250 28 -133 0 -173 -4 -237 -22 -352 -97 -608 -368 -683 -725 -19 -88 -19
-276 0 -364 42 -201 134 -365 281 -502 285 -266 708 -326 1057 -151 l77 39 -2
-311 -3 -312 -78 -25 c-44 -14 -82 -33 -86 -41 -4 -8 -32 -100 -61 -205 -29
-104 -60 -196 -68 -202 -22 -18 -371 -18 -395 -1 -11 8 -38 88 -73 208 -53
187 -72 230 -100 230 -34 0 -211 67 -316 120 -102 52 -122 59 -141 49 -12 -6
-100 -54 -195 -107 l-174 -95 -144 144 c-79 79 -144 148 -144 152 0 5 45 89
100 188 55 99 100 187 100 197 0 10 -24 65 -53 123 -29 57 -70 156 -91 219
-21 63 -43 121 -50 128 -6 6 -99 37 -206 68 -107 31 -201 60 -207 66 -18 15
-18 391 0 406 6 6 100 35 207 66 107 31 200 62 206 68 7 7 29 63 48 123 20 61
53 144 74 185 l37 75 252 5 c234 5 254 6 280 26 59 43 63 65 63 326 l0 236 33
20 c46 29 191 87 267 107 36 10 73 25 82 34 9 9 40 97 68 196 28 99 55 190 60
203 10 22 10 22 216 20 l207 -3 58 -202z m-109 -928 c150 -31 268 -96 384
-210 270 -266 311 -668 100 -983 -25 -37 -58 -76 -74 -86 -16 -11 -37 -32 -48
-48 -39 -58 -176 -139 -304 -180 -64 -19 -96 -23 -215 -23 -119 0 -151 4 -215
23 -255 80 -442 260 -526 507 -22 65 -28 104 -32 203 -3 75 0 147 8 184 59
303 299 547 600 612 85 19 238 19 322 1z m2058 -2043 c0 -265 -3 -361 -12
-370 -9 -9 -199 -12 -794 -12 -698 0 -784 2 -798 16 -14 13 -16 61 -16 370 l0
354 810 0 810 0 0 -358z"/>
<path d="M2481 3651 c-28 -52 11 -81 109 -81 169 0 391 -75 562 -189 273 -183
466 -517 485 -841 3 -52 10 -103 15 -112 10 -21 58 -24 76 -6 29 29 5 250 -45
406 -148 470 -592 817 -1074 839 -112 5 -117 5 -128 -16z"/>
<path d="M1309 2477 c-14 -31 3 -209 32 -320 130 -509 582 -888 1091 -914 116
-6 138 0 138 42 0 37 -25 48 -137 57 -394 30 -738 264 -913 621 -63 130 -97
248 -111 395 -7 64 -16 123 -22 130 -17 22 -66 15 -78 -11z"/>
<path d="M2574 2620 c-23 -9 -164 -251 -164 -281 0 -49 50 -68 82 -31 34 38
149 255 146 274 -4 28 -38 48 -64 38z"/>
<path d="M2731 2613 c-33 -23 -26 -54 24 -103 25 -24 45 -49 45 -55 0 -6 -20
-31 -45 -55 -27 -26 -45 -53 -45 -67 0 -26 34 -53 60 -46 26 7 160 147 160
168 0 21 -134 161 -160 168 -10 3 -28 -2 -39 -10z"/>
<path d="M2192 2547 c-41 -41 -72 -81 -72 -92 0 -12 31 -51 73 -93 77 -77 116
-92 137 -53 16 31 13 39 -40 95 l-49 52 44 44 c51 50 61 71 45 100 -22 40 -60
26 -138 -53z"/>
<path d="M3325 1296 c-15 -22 -13 -31 21 -137 20 -63 44 -122 54 -133 26 -26
61 -15 86 28 l20 35 19 -35 c23 -42 59 -55 85 -28 10 11 34 70 54 133 33 106
35 116 21 138 -31 47 -74 24 -99 -53 l-17 -52 -28 29 c-33 33 -60 30 -83 -8
l-15 -26 -18 54 c-26 80 -68 104 -100 55z"/>
<path d="M3755 1299 c-19 -20 -18 -23 24 -150 37 -112 46 -130 67 -135 28 -7
49 7 71 50 l16 30 18 -37 c21 -40 60 -57 84 -37 17 14 85 214 85 251 0 31 -17
49 -47 49 -26 0 -46 -27 -64 -87 l-12 -42 -27 29 c-32 34 -63 31 -85 -9 -15
-28 -13 -31 -40 49 -22 64 -55 78 -90 39z"/>
<path d="M4186 1304 c-23 -22 -21 -36 22 -164 34 -101 42 -116 66 -125 24 -8
31 -6 51 17 13 15 25 33 29 40 4 10 9 8 18 -6 40 -58 45 -61 74 -51 26 9 33
22 66 120 45 136 47 161 12 177 -37 17 -55 1 -80 -66 l-20 -58 -17 26 c-22 33
-71 36 -89 6 -18 -28 -23 -25 -37 23 -22 72 -60 97 -95 61z"/>
<path d="M577 3752 c-20 -22 -22 -53 -5 -70 8 -8 56 -12 148 -12 147 0 160 4
160 52 0 41 -25 48 -163 48 -107 0 -126 -2 -140 -18z"/>
<path d="M576 3544 c-22 -21 -20 -61 3 -74 12 -6 121 -10 285 -10 l266 0 16
25 c15 23 15 27 0 50 l-16 25 -270 0 c-231 0 -271 -2 -284 -16z"/>
<path d="M4342 3356 c-40 -41 -72 -79 -72 -86 0 -7 30 -43 67 -81 49 -51 73
-69 93 -69 20 0 44 18 93 69 37 38 67 74 67 81 0 19 -141 160 -160 160 -9 0
-49 -33 -88 -74z m113 -66 c18 -20 18 -21 -3 -43 l-22 -21 -22 21 c-21 22 -21
23 -3 43 10 11 21 20 25 20 4 0 15 -9 25 -20z"/>
<path d="M603 1888 c-6 -7 -15 -26 -20 -43 -9 -27 -21 -36 -83 -65 -19 -9 -25
-47 -10 -66 7 -7 23 -14 35 -14 26 0 65 -42 65 -70 0 -26 26 -43 54 -36 17 4
28 18 38 48 11 38 18 45 56 56 30 10 44 21 48 38 7 28 -10 54 -36 54 -27 0
-70 39 -70 64 0 12 -5 27 -12 34 -16 16 -53 15 -65 0z"/>
<path d="M532 1354 c-12 -8 -22 -26 -22 -38 0 -27 -20 -47 -63 -61 -61 -20
-61 -70 0 -90 43 -14 63 -34 63 -61 0 -14 10 -30 24 -39 34 -22 59 -7 74 44
11 34 18 41 55 53 39 12 42 16 42 48 0 32 -3 36 -42 48 -35 11 -44 20 -54 50
-10 33 -33 62 -49 62 -3 0 -16 -7 -28 -16z"/>
</g>
</svg>
